<svg id="icon3" xmlns="http://www.w3.org/2000/svg" width="200" height="200" viewBox="0 0 200 200">
  <g id="Layer_1" data-name="Layer 1">
    <circle id="Ellipse_4" data-name="Ellipse 4" cx="100" cy="100" r="100" fill="#563f7a"/>
  </g>
  <g id="Layer_2" data-name="Layer 2" transform="translate(50 50)">
    <path id="Path_60" data-name="Path 60" d="M96.333,13H29.667A16.667,16.667,0,0,0,13,29.667V96.333A16.667,16.667,0,0,0,29.667,113H96.333A16.667,16.667,0,0,0,113,96.333V29.667A16.667,16.667,0,0,0,96.333,13ZM87.25,83.208a12.958,12.958,0,0,1-3.833,5.167,19.583,19.583,0,0,1-6.708,3.417A32.833,32.833,0,0,1,67,93.083H40.167V34.75H68.5A20.25,20.25,0,0,1,81,38.333a12.792,12.792,0,0,1,4.75,10.875,13,13,0,0,1-1.917,7.542,13.875,13.875,0,0,1-6.167,4.875h0A12.792,12.792,0,0,1,86,66.708a16.917,16.917,0,0,1,2.792,9.917A16.667,16.667,0,0,1,87.25,83.208Z" transform="translate(-13 -13)" fill="#fff"/>
    <path id="Path_61" data-name="Path 61" d="M47,28.189a10.333,10.333,0,0,0-7.208-2.333H22v18.25H40.042A10.083,10.083,0,0,0,47,41.689a8.917,8.917,0,0,0,2.75-6.833A8.333,8.333,0,0,0,47,28.189Z" transform="translate(15.5 27.645)" fill="#fff"/>
    <path id="Path_62" data-name="Path 62" d="M44.667,34.259A7.5,7.5,0,0,0,47,28.217a7.583,7.583,0,0,0-2.208-6.208,9.917,9.917,0,0,0-6.125-1.792H22V36.342H38.667A9.042,9.042,0,0,0,44.667,34.259Z" transform="translate(15.5 9.825)" fill="#fff"/>
  </g>
</svg>
