<svg xmlns="http://www.w3.org/2000/svg" width="200" height="200" viewBox="0 0 200 200">
  <g id="user" transform="translate(-13.584 -12.584)">
    <g id="Group_2" data-name="Group 2" transform="translate(13.584 12.584)">
      <circle id="Ellipse_5" data-name="Ellipse 5" cx="100" cy="100" r="100" fill="#5e5e5e"/>
    </g>
    <g id="Group_3" data-name="Group 3" transform="translate(74.253 67.094)">
      <path id="Path_65" data-name="Path 65" d="M237.476,221.795a40.377,40.377,0,0,1,10.82,5.817,34.17,34.17,0,0,1,8.144,8.726,40.155,40.155,0,0,1,5.119,10.82,42.525,42.525,0,0,1,1.862,12.216h-5.584a34.435,34.435,0,0,0-2.56-13.5,32.986,32.986,0,0,0-7.1-10.82,33.064,33.064,0,0,0-24.083-9.773,33.473,33.473,0,0,0-9.075,1.163,38.727,38.727,0,0,0-8.144,3.374,38.188,38.188,0,0,0-6.864,5.236,29.828,29.828,0,0,0-5.236,6.864,38.726,38.726,0,0,0-3.374,8.144,33.733,33.733,0,0,0-1.163,9.191h-5.585a38.36,38.36,0,0,1,1.862-12.216,43.554,43.554,0,0,1,5.236-10.7,36.218,36.218,0,0,1,8.26-8.609,42.246,42.246,0,0,1,10.82-5.934,30.146,30.146,0,0,1-6.166-4.537,25.576,25.576,0,0,1-4.654-5.934,30.547,30.547,0,0,1-2.909-6.981,27.6,27.6,0,0,1-1.047-7.562,27.188,27.188,0,0,1,2.211-11.052,30.215,30.215,0,0,1,6.05-9.075,27.7,27.7,0,0,1,8.959-6.05,26.645,26.645,0,0,1,10.936-2.211,26.263,26.263,0,0,1,10.936,2.211,29.677,29.677,0,0,1,8.959,6.05,28.83,28.83,0,0,1,6.05,9.075,27.19,27.19,0,0,1,2.211,11.052,28.753,28.753,0,0,1-3.955,14.427,25.567,25.567,0,0,1-4.654,5.934A25.834,25.834,0,0,1,237.476,221.795ZM201.41,196.9a22.62,22.62,0,0,0,1.745,8.842,22.542,22.542,0,0,0,20.826,13.845,21.646,21.646,0,0,0,8.726-1.745,23.27,23.27,0,0,0,7.213-4.886,23.937,23.937,0,0,0,4.886-7.213,23.273,23.273,0,0,0,0-17.684A22.542,22.542,0,0,0,223.98,174.21a21.646,21.646,0,0,0-8.726,1.745,23.275,23.275,0,0,0-7.213,4.886,23.944,23.944,0,0,0-4.886,7.213A22.209,22.209,0,0,0,201.41,196.9Z" transform="translate(-184.656 -168.393)" fill="#e3e3e3"/>
    </g>
  </g>
</svg>
